<?xml version="1.0" encoding="UTF-8" standalone="no"?>
<!DOCTYPE svg PUBLIC "-//W3C//DTD SVG 1.1//EN"
 "http://www.w3.org/Graphics/SVG/1.1/DTD/svg11.dtd">
<!-- Generated by graphviz version 2.47.0 (20210316.0004)
 -->
<!-- Title: dependencies Pages: 1 -->
<svg width="867pt" height="284pt"
 viewBox="0.00 0.00 867.00 284.00" xmlns="http://www.w3.org/2000/svg" xmlns:xlink="http://www.w3.org/1999/xlink">
<g id="graph0" class="graph" transform="scale(1 1) rotate(0) translate(4 280)">
<title>dependencies</title>
<polygon fill="white" stroke="transparent" points="-4,4 -4,-280 863,-280 863,4 -4,4"/>
<text text-anchor="start" x="408.51" y="-42.4" font-family="sans-serif" font-weight="bold" font-size="14.00">Legend</text>
<polygon fill="#ffffb3" stroke="transparent" points="195.5,-10 195.5,-30 215.5,-30 215.5,-10 195.5,-10"/>
<text text-anchor="start" x="219.13" y="-15.4" font-family="sans-serif" font-size="14.00"> &#160;Declarations</text>
<polygon fill="#8dd3c7" stroke="transparent" points="308.5,-10 308.5,-30 328.5,-30 328.5,-10 308.5,-10"/>
<text text-anchor="start" x="332.23" y="-15.4" font-family="sans-serif" font-size="14.00"> &#160;Module</text>
<polygon fill="#80b1d3" stroke="transparent" points="394.5,-10 394.5,-30 414.5,-30 414.5,-10 394.5,-10"/>
<text text-anchor="start" x="418.28" y="-15.4" font-family="sans-serif" font-size="14.00"> &#160;Bootstrap</text>
<polygon fill="#fdb462" stroke="transparent" points="491.5,-10 491.5,-30 511.5,-30 511.5,-10 491.5,-10"/>
<text text-anchor="start" x="515.17" y="-15.4" font-family="sans-serif" font-size="14.00"> &#160;Providers</text>
<polygon fill="#fb8072" stroke="transparent" points="587.5,-10 587.5,-30 607.5,-30 607.5,-10 587.5,-10"/>
<text text-anchor="start" x="611.23" y="-15.4" font-family="sans-serif" font-size="14.00"> &#160;Exports</text>
<g id="clust1" class="cluster">
<title>cluster_BaseModule</title>
<polygon fill="none" stroke="black" stroke-dasharray="1,5" points="8,-70 8,-268 851,-268 851,-70 8,-70"/>
</g>
<g id="clust9" class="cluster">
<title>cluster_BaseModule_exports</title>
<polygon fill="none" stroke="black" points="16,-208 16,-260 843,-260 843,-208 16,-208"/>
</g>
<g id="clust2" class="cluster">
<title>cluster_BaseModule_declarations</title>
<polygon fill="none" stroke="black" points="26,-78 26,-130 836,-130 836,-78 26,-78"/>
</g>
<!-- BaseAlertComponent -->
<g id="node1" class="node">
<title>BaseAlertComponent</title>
<polygon fill="#ffffb3" stroke="black" points="827.81,-122 690.19,-122 690.19,-86 827.81,-86 827.81,-122"/>
<text text-anchor="middle" x="759" y="-99.8" font-family="Times,serif" font-size="14.00">BaseAlertComponent</text>
</g>
<!-- BaseModule -->
<g id="node6" class="node">
<title>BaseModule</title>
<polygon fill="#8dd3c7" stroke="black" points="478.26,-187 475.26,-191 454.26,-191 451.26,-187 391.74,-187 391.74,-151 478.26,-151 478.26,-187"/>
<text text-anchor="middle" x="435" y="-164.8" font-family="Times,serif" font-size="14.00">BaseModule</text>
</g>
<!-- BaseAlertComponent&#45;&gt;BaseModule -->
<g id="edge1" class="edge">
<title>BaseAlertComponent&#45;&gt;BaseModule</title>
<path fill="none" stroke="black" d="M783.3,-122.27C783.3,-140.56 783.3,-166 783.3,-166 783.3,-166 488.41,-166 488.41,-166"/>
<polygon fill="black" stroke="black" points="488.41,-162.5 478.41,-166 488.41,-169.5 488.41,-162.5"/>
</g>
<!-- BaseButtonComponent -->
<g id="node2" class="node">
<title>BaseButtonComponent</title>
<polygon fill="#ffffb3" stroke="black" points="672.16,-122 525.84,-122 525.84,-86 672.16,-86 672.16,-122"/>
<text text-anchor="middle" x="599" y="-99.8" font-family="Times,serif" font-size="14.00">BaseButtonComponent</text>
</g>
<!-- BaseButtonComponent&#45;&gt;BaseModule -->
<g id="edge2" class="edge">
<title>BaseButtonComponent&#45;&gt;BaseModule</title>
<path fill="none" stroke="black" d="M623.86,-122.01C623.86,-138.05 623.86,-159 623.86,-159 623.86,-159 488.33,-159 488.33,-159"/>
<polygon fill="black" stroke="black" points="488.33,-155.5 478.33,-159 488.33,-162.5 488.33,-155.5"/>
</g>
<!-- BaseFooterComponent -->
<g id="node3" class="node">
<title>BaseFooterComponent</title>
<polygon fill="#ffffb3" stroke="black" points="507.59,-122 362.41,-122 362.41,-86 507.59,-86 507.59,-122"/>
<text text-anchor="middle" x="435" y="-99.8" font-family="Times,serif" font-size="14.00">BaseFooterComponent</text>
</g>
<!-- BaseFooterComponent&#45;&gt;BaseModule -->
<g id="edge3" class="edge">
<title>BaseFooterComponent&#45;&gt;BaseModule</title>
<path fill="none" stroke="black" d="M435,-122.11C435,-122.11 435,-140.99 435,-140.99"/>
<polygon fill="black" stroke="black" points="431.5,-140.99 435,-150.99 438.5,-140.99 431.5,-140.99"/>
</g>
<!-- BaseHeaderComponent -->
<g id="node4" class="node">
<title>BaseHeaderComponent</title>
<polygon fill="#ffffb3" stroke="black" points="344.45,-122 195.55,-122 195.55,-86 344.45,-86 344.45,-122"/>
<text text-anchor="middle" x="270" y="-99.8" font-family="Times,serif" font-size="14.00">BaseHeaderComponent</text>
</g>
<!-- BaseHeaderComponent&#45;&gt;BaseModule -->
<g id="edge4" class="edge">
<title>BaseHeaderComponent&#45;&gt;BaseModule</title>
<path fill="none" stroke="black" d="M293.33,-122.01C293.33,-138.05 293.33,-159 293.33,-159 293.33,-159 381.72,-159 381.72,-159"/>
<polygon fill="black" stroke="black" points="381.72,-162.5 391.72,-159 381.72,-155.5 381.72,-162.5"/>
</g>
<!-- BaseImageComponent -->
<g id="node5" class="node">
<title>BaseImageComponent</title>
<polygon fill="#ffffb3" stroke="black" points="177.52,-122 34.48,-122 34.48,-86 177.52,-86 177.52,-122"/>
<text text-anchor="middle" x="106" y="-99.8" font-family="Times,serif" font-size="14.00">BaseImageComponent</text>
</g>
<!-- BaseImageComponent&#45;&gt;BaseModule -->
<g id="edge5" class="edge">
<title>BaseImageComponent&#45;&gt;BaseModule</title>
<path fill="none" stroke="black" d="M125.75,-122.27C125.75,-140.56 125.75,-166 125.75,-166 125.75,-166 381.68,-166 381.68,-166"/>
<polygon fill="black" stroke="black" points="381.68,-169.5 391.68,-166 381.67,-162.5 381.68,-169.5"/>
</g>
<!-- BaseAlertComponent  -->
<g id="node7" class="node">
<title>BaseAlertComponent </title>
<polygon fill="#fb8072" stroke="black" points="835.31,-252 694.69,-252 694.69,-216 835.31,-216 835.31,-252"/>
<text text-anchor="middle" x="765" y="-229.8" font-family="Times,serif" font-size="14.00">BaseAlertComponent </text>
</g>
<!-- BaseModule&#45;&gt;BaseAlertComponent  -->
<g id="edge6" class="edge">
<title>BaseModule&#45;&gt;BaseAlertComponent </title>
<path fill="none" stroke="black" stroke-dasharray="5,2" d="M478.55,-173C562.59,-173 738.95,-173 738.95,-173 738.95,-173 738.95,-205.7 738.95,-205.7"/>
<polygon fill="black" stroke="black" points="735.45,-205.7 738.95,-215.7 742.45,-205.7 735.45,-205.7"/>
</g>
<!-- BaseButtonComponent  -->
<g id="node8" class="node">
<title>BaseButtonComponent </title>
<polygon fill="#fb8072" stroke="black" points="677.16,-252 526.84,-252 526.84,-216 677.16,-216 677.16,-252"/>
<text text-anchor="middle" x="602" y="-229.8" font-family="Times,serif" font-size="14.00">BaseButtonComponent </text>
</g>
<!-- BaseModule&#45;&gt;BaseButtonComponent  -->
<g id="edge7" class="edge">
<title>BaseModule&#45;&gt;BaseButtonComponent </title>
<path fill="none" stroke="black" stroke-dasharray="5,2" d="M478.27,-180C519.52,-180 575.39,-180 575.39,-180 575.39,-180 575.39,-205.72 575.39,-205.72"/>
<polygon fill="black" stroke="black" points="571.89,-205.72 575.39,-215.72 578.89,-205.72 571.89,-205.72"/>
</g>
<!-- BaseFooterComponent  -->
<g id="node9" class="node">
<title>BaseFooterComponent </title>
<polygon fill="#fb8072" stroke="black" points="509.09,-252 360.91,-252 360.91,-216 509.09,-216 509.09,-252"/>
<text text-anchor="middle" x="435" y="-229.8" font-family="Times,serif" font-size="14.00">BaseFooterComponent </text>
</g>
<!-- BaseModule&#45;&gt;BaseFooterComponent  -->
<g id="edge8" class="edge">
<title>BaseModule&#45;&gt;BaseFooterComponent </title>
<path fill="none" stroke="black" stroke-dasharray="5,2" d="M435,-187.11C435,-187.11 435,-205.99 435,-205.99"/>
<polygon fill="black" stroke="black" points="431.5,-205.99 435,-215.99 438.5,-205.99 431.5,-205.99"/>
</g>
<!-- BaseHeaderComponent  -->
<g id="node10" class="node">
<title>BaseHeaderComponent </title>
<polygon fill="#fb8072" stroke="black" points="342.45,-252 189.55,-252 189.55,-216 342.45,-216 342.45,-252"/>
<text text-anchor="middle" x="266" y="-229.8" font-family="Times,serif" font-size="14.00">BaseHeaderComponent </text>
</g>
<!-- BaseModule&#45;&gt;BaseHeaderComponent  -->
<g id="edge9" class="edge">
<title>BaseModule&#45;&gt;BaseHeaderComponent </title>
<path fill="none" stroke="black" stroke-dasharray="5,2" d="M391.28,-180C335.01,-180 244.42,-180 244.42,-180 244.42,-180 244.42,-205.72 244.42,-205.72"/>
<polygon fill="black" stroke="black" points="240.92,-205.72 244.42,-215.72 247.92,-205.72 240.92,-205.72"/>
</g>
<!-- BaseImageComponent  -->
<g id="node11" class="node">
<title>BaseImageComponent </title>
<polygon fill="#fb8072" stroke="black" points="171.52,-252 24.48,-252 24.48,-216 171.52,-216 171.52,-252"/>
<text text-anchor="middle" x="98" y="-229.8" font-family="Times,serif" font-size="14.00">BaseImageComponent </text>
</g>
<!-- BaseModule&#45;&gt;BaseImageComponent  -->
<g id="edge10" class="edge">
<title>BaseModule&#45;&gt;BaseImageComponent </title>
<path fill="none" stroke="black" stroke-dasharray="5,2" d="M391.47,-173C296.67,-173 80,-173 80,-173 80,-173 80,-205.7 80,-205.7"/>
<polygon fill="black" stroke="black" points="76.5,-205.7 80,-215.7 83.5,-205.7 76.5,-205.7"/>
</g>
</g>
</svg>
