<?xml version="1.0" encoding="UTF-8" standalone="no"?>
<!DOCTYPE svg PUBLIC "-//W3C//DTD SVG 1.1//EN"
 "http://www.w3.org/Graphics/SVG/1.1/DTD/svg11.dtd">
<!-- Generated by graphviz version 2.47.0 (20210316.0004)
 -->
<!-- Title: dependencies Pages: 1 -->
<svg width="766pt" height="284pt"
 viewBox="0.00 0.00 766.00 284.00" xmlns="http://www.w3.org/2000/svg" xmlns:xlink="http://www.w3.org/1999/xlink">
<g id="graph0" class="graph" transform="scale(1 1) rotate(0) translate(4 280)">
<title>dependencies</title>
<polygon fill="white" stroke="transparent" points="-4,4 -4,-280 762,-280 762,4 -4,4"/>
<text text-anchor="start" x="358.01" y="-42.4" font-family="sans-serif" font-weight="bold" font-size="14.00">Legend</text>
<polygon fill="#ffffb3" stroke="transparent" points="145,-10 145,-30 165,-30 165,-10 145,-10"/>
<text text-anchor="start" x="168.63" y="-15.4" font-family="sans-serif" font-size="14.00"> &#160;Declarations</text>
<polygon fill="#8dd3c7" stroke="transparent" points="258,-10 258,-30 278,-30 278,-10 258,-10"/>
<text text-anchor="start" x="281.73" y="-15.4" font-family="sans-serif" font-size="14.00"> &#160;Module</text>
<polygon fill="#80b1d3" stroke="transparent" points="344,-10 344,-30 364,-30 364,-10 344,-10"/>
<text text-anchor="start" x="367.78" y="-15.4" font-family="sans-serif" font-size="14.00"> &#160;Bootstrap</text>
<polygon fill="#fdb462" stroke="transparent" points="441,-10 441,-30 461,-30 461,-10 441,-10"/>
<text text-anchor="start" x="464.67" y="-15.4" font-family="sans-serif" font-size="14.00"> &#160;Providers</text>
<polygon fill="#fb8072" stroke="transparent" points="537,-10 537,-30 557,-30 557,-10 537,-10"/>
<text text-anchor="start" x="560.73" y="-15.4" font-family="sans-serif" font-size="14.00"> &#160;Exports</text>
<g id="clust1" class="cluster">
<title>cluster_ShopModule</title>
<polygon fill="none" stroke="black" stroke-dasharray="1,5" points="8,-70 8,-268 750,-268 750,-70 8,-70"/>
</g>
<g id="clust2" class="cluster">
<title>cluster_ShopModule_declarations</title>
<polygon fill="none" stroke="black" points="138,-78 138,-130 742,-130 742,-78 138,-78"/>
</g>
<g id="clust7" class="cluster">
<title>cluster_ShopModule_imports</title>
<polygon fill="none" stroke="black" points="16,-78 16,-130 130,-130 130,-78 16,-78"/>
</g>
<g id="clust8" class="cluster">
<title>cluster_ShopModule_exports</title>
<polygon fill="none" stroke="black" points="323,-208 323,-260 453,-260 453,-208 323,-208"/>
</g>
<!-- ShopCartComponent -->
<g id="node1" class="node">
<title>ShopCartComponent</title>
<polygon fill="#ffffb3" stroke="black" points="734.22,-122 599.78,-122 599.78,-86 734.22,-86 734.22,-122"/>
<text text-anchor="middle" x="667" y="-99.8" font-family="Times,serif" font-size="14.00">ShopCartComponent</text>
</g>
<!-- ShopModule -->
<g id="node5" class="node">
<title>ShopModule</title>
<polygon fill="#8dd3c7" stroke="black" points="432.33,-187 429.33,-191 408.33,-191 405.33,-187 343.67,-187 343.67,-151 432.33,-151 432.33,-187"/>
<text text-anchor="middle" x="388" y="-164.8" font-family="Times,serif" font-size="14.00">ShopModule</text>
</g>
<!-- ShopCartComponent&#45;&gt;ShopModule -->
<g id="edge1" class="edge">
<title>ShopCartComponent&#45;&gt;ShopModule</title>
<path fill="none" stroke="black" d="M667,-122.28C667,-143.32 667,-175 667,-175 667,-175 442.21,-175 442.21,-175"/>
<polygon fill="black" stroke="black" points="442.21,-171.5 432.21,-175 442.21,-178.5 442.21,-171.5"/>
</g>
<!-- ShopComponent -->
<g id="node2" class="node">
<title>ShopComponent</title>
<polygon fill="#ffffb3" stroke="black" points="582.12,-122 471.88,-122 471.88,-86 582.12,-86 582.12,-122"/>
<text text-anchor="middle" x="527" y="-99.8" font-family="Times,serif" font-size="14.00">ShopComponent</text>
</g>
<!-- ShopComponent&#45;&gt;ShopModule -->
<g id="edge2" class="edge">
<title>ShopComponent&#45;&gt;ShopModule</title>
<path fill="none" stroke="black" d="M527,-122.02C527,-139.37 527,-163 527,-163 527,-163 442.36,-163 442.36,-163"/>
<polygon fill="black" stroke="black" points="442.36,-159.5 432.36,-163 442.36,-166.5 442.36,-159.5"/>
</g>
<!-- ShopListComponent -->
<g id="node3" class="node">
<title>ShopListComponent</title>
<polygon fill="#ffffb3" stroke="black" points="453.89,-122 322.11,-122 322.11,-86 453.89,-86 453.89,-122"/>
<text text-anchor="middle" x="388" y="-99.8" font-family="Times,serif" font-size="14.00">ShopListComponent</text>
</g>
<!-- ShopListComponent&#45;&gt;ShopModule -->
<g id="edge3" class="edge">
<title>ShopListComponent&#45;&gt;ShopModule</title>
<path fill="none" stroke="black" d="M388,-122.11C388,-122.11 388,-140.99 388,-140.99"/>
<polygon fill="black" stroke="black" points="384.5,-140.99 388,-150.99 391.5,-140.99 384.5,-140.99"/>
</g>
<!-- ShopListItemComponent -->
<g id="node4" class="node">
<title>ShopListItemComponent</title>
<polygon fill="#ffffb3" stroke="black" points="303.55,-122 146.45,-122 146.45,-86 303.55,-86 303.55,-122"/>
<text text-anchor="middle" x="225" y="-99.8" font-family="Times,serif" font-size="14.00">ShopListItemComponent</text>
</g>
<!-- ShopListItemComponent&#45;&gt;ShopModule -->
<g id="edge4" class="edge">
<title>ShopListItemComponent&#45;&gt;ShopModule</title>
<path fill="none" stroke="black" d="M225,-122.02C225,-139.37 225,-163 225,-163 225,-163 333.46,-163 333.46,-163"/>
<polygon fill="black" stroke="black" points="333.46,-166.5 343.46,-163 333.46,-159.5 333.46,-166.5"/>
</g>
<!-- ShopComponent  -->
<g id="node7" class="node">
<title>ShopComponent </title>
<polygon fill="#fb8072" stroke="black" points="444.62,-252 331.38,-252 331.38,-216 444.62,-216 444.62,-252"/>
<text text-anchor="middle" x="388" y="-229.8" font-family="Times,serif" font-size="14.00">ShopComponent </text>
</g>
<!-- ShopModule&#45;&gt;ShopComponent  -->
<g id="edge6" class="edge">
<title>ShopModule&#45;&gt;ShopComponent </title>
<path fill="none" stroke="black" stroke-dasharray="5,2" d="M388,-187.11C388,-187.11 388,-205.99 388,-205.99"/>
<polygon fill="black" stroke="black" points="384.5,-205.99 388,-215.99 391.5,-205.99 384.5,-205.99"/>
</g>
<!-- SharedModule -->
<g id="node6" class="node">
<title>SharedModule</title>
<polygon fill="#8dd3c7" stroke="black" points="122.42,-122 119.42,-126 98.42,-126 95.42,-122 23.58,-122 23.58,-86 122.42,-86 122.42,-122"/>
<text text-anchor="middle" x="73" y="-99.8" font-family="Times,serif" font-size="14.00">SharedModule</text>
</g>
<!-- SharedModule&#45;&gt;ShopModule -->
<g id="edge5" class="edge">
<title>SharedModule&#45;&gt;ShopModule</title>
<path fill="none" stroke="black" d="M73,-122.28C73,-143.32 73,-175 73,-175 73,-175 333.54,-175 333.54,-175"/>
<polygon fill="black" stroke="black" points="333.54,-178.5 343.54,-175 333.54,-171.5 333.54,-178.5"/>
</g>
</g>
</svg>
