<?xml version="1.0" encoding="UTF-8" standalone="no"?>
<!DOCTYPE svg PUBLIC "-//W3C//DTD SVG 1.1//EN"
 "http://www.w3.org/Graphics/SVG/1.1/DTD/svg11.dtd">
<!-- Generated by graphviz version 2.47.0 (20210316.0004)
 -->
<!-- Title: dependencies Pages: 1 -->
<svg width="602pt" height="211pt"
 viewBox="0.00 0.00 602.00 211.00" xmlns="http://www.w3.org/2000/svg" xmlns:xlink="http://www.w3.org/1999/xlink">
<g id="graph0" class="graph" transform="scale(1 1) rotate(0) translate(4 207)">
<title>dependencies</title>
<polygon fill="white" stroke="transparent" points="-4,4 -4,-207 598,-207 598,4 -4,4"/>
<text text-anchor="start" x="276.01" y="-42.4" font-family="sans-serif" font-weight="bold" font-size="14.00">Legend</text>
<polygon fill="#ffffb3" stroke="transparent" points="63,-10 63,-30 83,-30 83,-10 63,-10"/>
<text text-anchor="start" x="86.63" y="-15.4" font-family="sans-serif" font-size="14.00"> &#160;Declarations</text>
<polygon fill="#8dd3c7" stroke="transparent" points="176,-10 176,-30 196,-30 196,-10 176,-10"/>
<text text-anchor="start" x="199.73" y="-15.4" font-family="sans-serif" font-size="14.00"> &#160;Module</text>
<polygon fill="#80b1d3" stroke="transparent" points="262,-10 262,-30 282,-30 282,-10 262,-10"/>
<text text-anchor="start" x="285.78" y="-15.4" font-family="sans-serif" font-size="14.00"> &#160;Bootstrap</text>
<polygon fill="#fdb462" stroke="transparent" points="359,-10 359,-30 379,-30 379,-10 359,-10"/>
<text text-anchor="start" x="382.67" y="-15.4" font-family="sans-serif" font-size="14.00"> &#160;Providers</text>
<polygon fill="#fb8072" stroke="transparent" points="455,-10 455,-30 475,-30 475,-10 455,-10"/>
<text text-anchor="start" x="478.73" y="-15.4" font-family="sans-serif" font-size="14.00"> &#160;Exports</text>
<g id="clust1" class="cluster">
<title>cluster_FeatureModule</title>
<polygon fill="none" stroke="black" stroke-dasharray="1,5" points="8,-70 8,-195 586,-195 586,-70 8,-70"/>
</g>
<g id="clust4" class="cluster">
<title>cluster_FeatureModule_exports</title>
<polygon fill="none" stroke="black" points="16,-135 16,-187 578,-187 578,-135 16,-135"/>
</g>
<!-- AccountModule  -->
<g id="node1" class="node">
<title>AccountModule </title>
<polygon fill="#fb8072" stroke="black" points="570.48,-179 459.52,-179 459.52,-143 570.48,-143 570.48,-179"/>
<text text-anchor="middle" x="515" y="-156.8" font-family="Times,serif" font-size="14.00">AccountModule </text>
</g>
<!-- BlogModule  -->
<g id="node2" class="node">
<title>BlogModule </title>
<polygon fill="#fb8072" stroke="black" points="442.28,-179 351.72,-179 351.72,-143 442.28,-143 442.28,-179"/>
<text text-anchor="middle" x="397" y="-156.8" font-family="Times,serif" font-size="14.00">BlogModule </text>
</g>
<!-- LoginModule  -->
<g id="node3" class="node">
<title>LoginModule </title>
<polygon fill="#fb8072" stroke="black" points="334.49,-179 237.51,-179 237.51,-143 334.49,-143 334.49,-179"/>
<text text-anchor="middle" x="286" y="-156.8" font-family="Times,serif" font-size="14.00">LoginModule </text>
</g>
<!-- PollModule  -->
<g id="node4" class="node">
<title>PollModule </title>
<polygon fill="#fb8072" stroke="black" points="219.61,-179 134.39,-179 134.39,-143 219.61,-143 219.61,-179"/>
<text text-anchor="middle" x="177" y="-156.8" font-family="Times,serif" font-size="14.00">PollModule </text>
</g>
<!-- ShopModule  -->
<g id="node5" class="node">
<title>ShopModule </title>
<polygon fill="#fb8072" stroke="black" points="115.83,-179 24.17,-179 24.17,-143 115.83,-143 115.83,-179"/>
<text text-anchor="middle" x="70" y="-156.8" font-family="Times,serif" font-size="14.00">ShopModule </text>
</g>
<!-- FeatureModule -->
<g id="node6" class="node">
<title>FeatureModule</title>
<polygon fill="#8dd3c7" stroke="black" points="336.53,-114 333.53,-118 312.53,-118 309.53,-114 235.47,-114 235.47,-78 336.53,-78 336.53,-114"/>
<text text-anchor="middle" x="286" y="-91.8" font-family="Times,serif" font-size="14.00">FeatureModule</text>
</g>
<!-- FeatureModule&#45;&gt;AccountModule  -->
<g id="edge1" class="edge">
<title>FeatureModule&#45;&gt;AccountModule </title>
<path fill="none" stroke="black" stroke-dasharray="5,2" d="M336.54,-90C403.98,-90 515,-90 515,-90 515,-90 515,-132.72 515,-132.72"/>
<polygon fill="black" stroke="black" points="511.5,-132.72 515,-142.72 518.5,-132.72 511.5,-132.72"/>
</g>
<!-- FeatureModule&#45;&gt;BlogModule  -->
<g id="edge2" class="edge">
<title>FeatureModule&#45;&gt;BlogModule </title>
<path fill="none" stroke="black" stroke-dasharray="5,2" d="M336.63,-102C365.9,-102 397,-102 397,-102 397,-102 397,-132.98 397,-132.98"/>
<polygon fill="black" stroke="black" points="393.5,-132.98 397,-142.98 400.5,-132.98 393.5,-132.98"/>
</g>
<!-- FeatureModule&#45;&gt;LoginModule  -->
<g id="edge3" class="edge">
<title>FeatureModule&#45;&gt;LoginModule </title>
<path fill="none" stroke="black" stroke-dasharray="5,2" d="M286,-114.11C286,-114.11 286,-132.99 286,-132.99"/>
<polygon fill="black" stroke="black" points="282.5,-132.99 286,-142.99 289.5,-132.99 282.5,-132.99"/>
</g>
<!-- FeatureModule&#45;&gt;PollModule  -->
<g id="edge4" class="edge">
<title>FeatureModule&#45;&gt;PollModule </title>
<path fill="none" stroke="black" stroke-dasharray="5,2" d="M235.33,-102C206.86,-102 177,-102 177,-102 177,-102 177,-132.98 177,-132.98"/>
<polygon fill="black" stroke="black" points="173.5,-132.98 177,-142.98 180.5,-132.98 173.5,-132.98"/>
</g>
<!-- FeatureModule&#45;&gt;ShopModule  -->
<g id="edge5" class="edge">
<title>FeatureModule&#45;&gt;ShopModule </title>
<path fill="none" stroke="black" stroke-dasharray="5,2" d="M235.36,-90C171.51,-90 70,-90 70,-90 70,-90 70,-132.72 70,-132.72"/>
<polygon fill="black" stroke="black" points="66.5,-132.72 70,-142.72 73.5,-132.72 66.5,-132.72"/>
</g>
</g>
</svg>
