<?xml version="1.0" encoding="UTF-8" standalone="no"?>
<!DOCTYPE svg PUBLIC "-//W3C//DTD SVG 1.1//EN"
 "http://www.w3.org/Graphics/SVG/1.1/DTD/svg11.dtd">
<!-- Generated by graphviz version 2.47.0 (20210316.0004)
 -->
<!-- Title: dependencies Pages: 1 -->
<svg width="1054pt" height="284pt"
 viewBox="0.00 0.00 1054.00 284.00" xmlns="http://www.w3.org/2000/svg" xmlns:xlink="http://www.w3.org/1999/xlink">
<g id="graph0" class="graph" transform="scale(1 1) rotate(0) translate(4 280)">
<title>dependencies</title>
<polygon fill="white" stroke="transparent" points="-4,4 -4,-280 1050,-280 1050,4 -4,4"/>
<text text-anchor="start" x="502.01" y="-42.4" font-family="sans-serif" font-weight="bold" font-size="14.00">Legend</text>
<polygon fill="#ffffb3" stroke="transparent" points="289,-10 289,-30 309,-30 309,-10 289,-10"/>
<text text-anchor="start" x="312.63" y="-15.4" font-family="sans-serif" font-size="14.00"> &#160;Declarations</text>
<polygon fill="#8dd3c7" stroke="transparent" points="402,-10 402,-30 422,-30 422,-10 402,-10"/>
<text text-anchor="start" x="425.73" y="-15.4" font-family="sans-serif" font-size="14.00"> &#160;Module</text>
<polygon fill="#80b1d3" stroke="transparent" points="488,-10 488,-30 508,-30 508,-10 488,-10"/>
<text text-anchor="start" x="511.78" y="-15.4" font-family="sans-serif" font-size="14.00"> &#160;Bootstrap</text>
<polygon fill="#fdb462" stroke="transparent" points="585,-10 585,-30 605,-30 605,-10 585,-10"/>
<text text-anchor="start" x="608.67" y="-15.4" font-family="sans-serif" font-size="14.00"> &#160;Providers</text>
<polygon fill="#fb8072" stroke="transparent" points="681,-10 681,-30 701,-30 701,-10 681,-10"/>
<text text-anchor="start" x="704.73" y="-15.4" font-family="sans-serif" font-size="14.00"> &#160;Exports</text>
<g id="clust1" class="cluster">
<title>cluster_PageModule</title>
<polygon fill="none" stroke="black" stroke-dasharray="1,5" points="8,-70 8,-268 1038,-268 1038,-70 8,-70"/>
</g>
<g id="clust9" class="cluster">
<title>cluster_PageModule_exports</title>
<polygon fill="none" stroke="black" points="177,-208 177,-260 807,-260 807,-208 177,-208"/>
</g>
<g id="clust2" class="cluster">
<title>cluster_PageModule_declarations</title>
<polygon fill="none" stroke="black" points="258,-78 258,-130 1030,-130 1030,-78 258,-78"/>
</g>
<g id="clust8" class="cluster">
<title>cluster_PageModule_imports</title>
<polygon fill="none" stroke="black" points="16,-78 16,-130 250,-130 250,-78 16,-78"/>
</g>
<!-- PageBlogComponent -->
<g id="node1" class="node">
<title>PageBlogComponent</title>
<polygon fill="#ffffb3" stroke="black" points="1021.77,-122 886.23,-122 886.23,-86 1021.77,-86 1021.77,-122"/>
<text text-anchor="middle" x="954" y="-99.8" font-family="Times,serif" font-size="14.00">PageBlogComponent</text>
</g>
<!-- PageModule -->
<g id="node6" class="node">
<title>PageModule</title>
<polygon fill="#8dd3c7" stroke="black" points="533.26,-187 530.26,-191 509.26,-191 506.26,-187 446.74,-187 446.74,-151 533.26,-151 533.26,-187"/>
<text text-anchor="middle" x="490" y="-164.8" font-family="Times,serif" font-size="14.00">PageModule</text>
</g>
<!-- PageBlogComponent&#45;&gt;PageModule -->
<g id="edge1" class="edge">
<title>PageBlogComponent&#45;&gt;PageModule</title>
<path fill="none" stroke="black" d="M954,-122.13C954,-142.57 954,-173 954,-173 954,-173 543.65,-173 543.65,-173"/>
<polygon fill="black" stroke="black" points="543.65,-169.5 533.65,-173 543.65,-176.5 543.65,-169.5"/>
</g>
<!-- PageLoginComponent -->
<g id="node2" class="node">
<title>PageLoginComponent</title>
<polygon fill="#ffffb3" stroke="black" points="867.99,-122 726.01,-122 726.01,-86 867.99,-86 867.99,-122"/>
<text text-anchor="middle" x="797" y="-99.8" font-family="Times,serif" font-size="14.00">PageLoginComponent</text>
</g>
<!-- PageLoginComponent&#45;&gt;PageModule -->
<g id="edge2" class="edge">
<title>PageLoginComponent&#45;&gt;PageModule</title>
<path fill="none" stroke="black" d="M762.32,-122.27C762.32,-140.56 762.32,-166 762.32,-166 762.32,-166 543.45,-166 543.45,-166"/>
<polygon fill="black" stroke="black" points="543.45,-162.5 533.45,-166 543.45,-169.5 543.45,-162.5"/>
</g>
<!-- PagePollComponent -->
<g id="node3" class="node">
<title>PagePollComponent</title>
<polygon fill="#ffffb3" stroke="black" points="707.61,-122 576.39,-122 576.39,-86 707.61,-86 707.61,-122"/>
<text text-anchor="middle" x="642" y="-99.8" font-family="Times,serif" font-size="14.00">PagePollComponent</text>
</g>
<!-- PagePollComponent&#45;&gt;PageModule -->
<g id="edge3" class="edge">
<title>PagePollComponent&#45;&gt;PageModule</title>
<path fill="none" stroke="black" d="M609.09,-122.01C609.09,-138.05 609.09,-159 609.09,-159 609.09,-159 543.33,-159 543.33,-159"/>
<polygon fill="black" stroke="black" points="543.33,-155.5 533.33,-159 543.33,-162.5 543.33,-155.5"/>
</g>
<!-- PageShopComponent -->
<g id="node4" class="node">
<title>PageShopComponent</title>
<polygon fill="#ffffb3" stroke="black" points="558.83,-122 421.17,-122 421.17,-86 558.83,-86 558.83,-122"/>
<text text-anchor="middle" x="490" y="-99.8" font-family="Times,serif" font-size="14.00">PageShopComponent</text>
</g>
<!-- PageShopComponent&#45;&gt;PageModule -->
<g id="edge4" class="edge">
<title>PageShopComponent&#45;&gt;PageModule</title>
<path fill="none" stroke="black" d="M490,-122.11C490,-122.11 490,-140.99 490,-140.99"/>
<polygon fill="black" stroke="black" points="486.5,-140.99 490,-150.99 493.5,-140.99 486.5,-140.99"/>
</g>
<!-- PageTypeComponent -->
<g id="node5" class="node">
<title>PageTypeComponent</title>
<polygon fill="#ffffb3" stroke="black" points="403.81,-122 266.19,-122 266.19,-86 403.81,-86 403.81,-122"/>
<text text-anchor="middle" x="335" y="-99.8" font-family="Times,serif" font-size="14.00">PageTypeComponent</text>
</g>
<!-- PageTypeComponent&#45;&gt;PageModule -->
<g id="edge5" class="edge">
<title>PageTypeComponent&#45;&gt;PageModule</title>
<path fill="none" stroke="black" d="M373.68,-122.01C373.68,-138.05 373.68,-159 373.68,-159 373.68,-159 436.69,-159 436.69,-159"/>
<polygon fill="black" stroke="black" points="436.69,-162.5 446.69,-159 436.69,-155.5 436.69,-162.5"/>
</g>
<!-- PageBlogComponent  -->
<g id="node9" class="node">
<title>PageBlogComponent </title>
<polygon fill="#fb8072" stroke="black" points="798.77,-252 659.23,-252 659.23,-216 798.77,-216 798.77,-252"/>
<text text-anchor="middle" x="729" y="-229.8" font-family="Times,serif" font-size="14.00">PageBlogComponent </text>
</g>
<!-- PageModule&#45;&gt;PageBlogComponent  -->
<g id="edge8" class="edge">
<title>PageModule&#45;&gt;PageBlogComponent </title>
<path fill="none" stroke="black" stroke-dasharray="5,2" d="M533.42,-180C590.45,-180 683.46,-180 683.46,-180 683.46,-180 683.46,-205.72 683.46,-205.72"/>
<polygon fill="black" stroke="black" points="679.96,-205.72 683.46,-215.72 686.96,-205.72 679.96,-205.72"/>
</g>
<!-- PageLoginComponent  -->
<g id="node10" class="node">
<title>PageLoginComponent </title>
<polygon fill="#fb8072" stroke="black" points="641.99,-252 496.01,-252 496.01,-216 641.99,-216 641.99,-252"/>
<text text-anchor="middle" x="569" y="-229.8" font-family="Times,serif" font-size="14.00">PageLoginComponent </text>
</g>
<!-- PageModule&#45;&gt;PageLoginComponent  -->
<g id="edge9" class="edge">
<title>PageModule&#45;&gt;PageLoginComponent </title>
<path fill="none" stroke="black" stroke-dasharray="5,2" d="M514.82,-187.11C514.82,-187.11 514.82,-205.99 514.82,-205.99"/>
<polygon fill="black" stroke="black" points="511.32,-205.99 514.82,-215.99 518.32,-205.99 511.32,-205.99"/>
</g>
<!-- PagePollComponent  -->
<g id="node11" class="node">
<title>PagePollComponent </title>
<polygon fill="#fb8072" stroke="black" points="478.11,-252 343.89,-252 343.89,-216 478.11,-216 478.11,-252"/>
<text text-anchor="middle" x="411" y="-229.8" font-family="Times,serif" font-size="14.00">PagePollComponent </text>
</g>
<!-- PageModule&#45;&gt;PagePollComponent  -->
<g id="edge10" class="edge">
<title>PageModule&#45;&gt;PagePollComponent </title>
<path fill="none" stroke="black" stroke-dasharray="5,2" d="M462.46,-187.11C462.46,-187.11 462.46,-205.99 462.46,-205.99"/>
<polygon fill="black" stroke="black" points="458.96,-205.99 462.46,-215.99 465.96,-205.99 458.96,-205.99"/>
</g>
<!-- PageShopComponent  -->
<g id="node12" class="node">
<title>PageShopComponent </title>
<polygon fill="#fb8072" stroke="black" points="325.33,-252 184.67,-252 184.67,-216 325.33,-216 325.33,-252"/>
<text text-anchor="middle" x="255" y="-229.8" font-family="Times,serif" font-size="14.00">PageShopComponent </text>
</g>
<!-- PageModule&#45;&gt;PageShopComponent  -->
<g id="edge11" class="edge">
<title>PageModule&#45;&gt;PageShopComponent </title>
<path fill="none" stroke="black" stroke-dasharray="5,2" d="M446.44,-180C389.2,-180 295.88,-180 295.88,-180 295.88,-180 295.88,-205.72 295.88,-205.72"/>
<polygon fill="black" stroke="black" points="292.38,-205.72 295.88,-215.72 299.38,-205.72 292.38,-205.72"/>
</g>
<!-- FeatureModule -->
<g id="node7" class="node">
<title>FeatureModule</title>
<polygon fill="#8dd3c7" stroke="black" points="241.53,-122 238.53,-126 217.53,-126 214.53,-122 140.47,-122 140.47,-86 241.53,-86 241.53,-122"/>
<text text-anchor="middle" x="191" y="-99.8" font-family="Times,serif" font-size="14.00">FeatureModule</text>
</g>
<!-- FeatureModule&#45;&gt;PageModule -->
<g id="edge6" class="edge">
<title>FeatureModule&#45;&gt;PageModule</title>
<path fill="none" stroke="black" d="M213.18,-122.27C213.18,-140.56 213.18,-166 213.18,-166 213.18,-166 436.44,-166 436.44,-166"/>
<polygon fill="black" stroke="black" points="436.44,-169.5 446.44,-166 436.44,-162.5 436.44,-169.5"/>
</g>
<!-- SharedModule -->
<g id="node8" class="node">
<title>SharedModule</title>
<polygon fill="#8dd3c7" stroke="black" points="122.42,-122 119.42,-126 98.42,-126 95.42,-122 23.58,-122 23.58,-86 122.42,-86 122.42,-122"/>
<text text-anchor="middle" x="73" y="-99.8" font-family="Times,serif" font-size="14.00">SharedModule</text>
</g>
<!-- SharedModule&#45;&gt;PageModule -->
<g id="edge7" class="edge">
<title>SharedModule&#45;&gt;PageModule</title>
<path fill="none" stroke="black" d="M73,-122.13C73,-142.57 73,-173 73,-173 73,-173 436.55,-173 436.55,-173"/>
<polygon fill="black" stroke="black" points="436.55,-176.5 446.55,-173 436.55,-169.5 436.55,-176.5"/>
</g>
</g>
</svg>
