<?xml version="1.0" encoding="UTF-8" standalone="no"?>
<!DOCTYPE svg PUBLIC "-//W3C//DTD SVG 1.1//EN"
 "http://www.w3.org/Graphics/SVG/1.1/DTD/svg11.dtd">
<!-- Generated by graphviz version 2.47.0 (20210316.0004)
 -->
<!-- Title: dependencies Pages: 1 -->
<svg width="642pt" height="284pt"
 viewBox="0.00 0.00 642.00 284.00" xmlns="http://www.w3.org/2000/svg" xmlns:xlink="http://www.w3.org/1999/xlink">
<g id="graph0" class="graph" transform="scale(1 1) rotate(0) translate(4 280)">
<title>dependencies</title>
<polygon fill="white" stroke="transparent" points="-4,4 -4,-280 638,-280 638,4 -4,4"/>
<text text-anchor="start" x="296.01" y="-42.4" font-family="sans-serif" font-weight="bold" font-size="14.00">Legend</text>
<polygon fill="#ffffb3" stroke="transparent" points="83,-10 83,-30 103,-30 103,-10 83,-10"/>
<text text-anchor="start" x="106.63" y="-15.4" font-family="sans-serif" font-size="14.00"> &#160;Declarations</text>
<polygon fill="#8dd3c7" stroke="transparent" points="196,-10 196,-30 216,-30 216,-10 196,-10"/>
<text text-anchor="start" x="219.73" y="-15.4" font-family="sans-serif" font-size="14.00"> &#160;Module</text>
<polygon fill="#80b1d3" stroke="transparent" points="282,-10 282,-30 302,-30 302,-10 282,-10"/>
<text text-anchor="start" x="305.78" y="-15.4" font-family="sans-serif" font-size="14.00"> &#160;Bootstrap</text>
<polygon fill="#fdb462" stroke="transparent" points="379,-10 379,-30 399,-30 399,-10 379,-10"/>
<text text-anchor="start" x="402.67" y="-15.4" font-family="sans-serif" font-size="14.00"> &#160;Providers</text>
<polygon fill="#fb8072" stroke="transparent" points="475,-10 475,-30 495,-30 495,-10 475,-10"/>
<text text-anchor="start" x="498.73" y="-15.4" font-family="sans-serif" font-size="14.00"> &#160;Exports</text>
<g id="clust1" class="cluster">
<title>cluster_BlogModule</title>
<polygon fill="none" stroke="black" stroke-dasharray="1,5" points="8,-70 8,-268 626,-268 626,-70 8,-70"/>
</g>
<g id="clust6" class="cluster">
<title>cluster_BlogModule_imports</title>
<polygon fill="none" stroke="black" points="504,-78 504,-130 618,-130 618,-78 504,-78"/>
</g>
<g id="clust7" class="cluster">
<title>cluster_BlogModule_exports</title>
<polygon fill="none" stroke="black" points="287,-208 287,-260 415,-260 415,-208 287,-208"/>
</g>
<g id="clust2" class="cluster">
<title>cluster_BlogModule_declarations</title>
<polygon fill="none" stroke="black" points="16,-78 16,-130 496,-130 496,-78 16,-78"/>
</g>
<!-- BlogComponent -->
<g id="node1" class="node">
<title>BlogComponent</title>
<polygon fill="#ffffb3" stroke="black" points="488.06,-122 379.94,-122 379.94,-86 488.06,-86 488.06,-122"/>
<text text-anchor="middle" x="434" y="-99.8" font-family="Times,serif" font-size="14.00">BlogComponent</text>
</g>
<!-- BlogModule -->
<g id="node4" class="node">
<title>BlogModule</title>
<polygon fill="#8dd3c7" stroke="black" points="394.28,-187 391.28,-191 370.28,-191 367.28,-187 307.72,-187 307.72,-151 394.28,-151 394.28,-187"/>
<text text-anchor="middle" x="351" y="-164.8" font-family="Times,serif" font-size="14.00">BlogModule</text>
</g>
<!-- BlogComponent&#45;&gt;BlogModule -->
<g id="edge1" class="edge">
<title>BlogComponent&#45;&gt;BlogModule</title>
<path fill="none" stroke="black" d="M387.05,-122.11C387.05,-122.11 387.05,-140.99 387.05,-140.99"/>
<polygon fill="black" stroke="black" points="383.55,-140.99 387.05,-150.99 390.55,-140.99 383.55,-140.99"/>
</g>
<!-- BlogPostCommentComponent -->
<g id="node2" class="node">
<title>BlogPostCommentComponent</title>
<polygon fill="#ffffb3" stroke="black" points="361.9,-122 174.1,-122 174.1,-86 361.9,-86 361.9,-122"/>
<text text-anchor="middle" x="268" y="-99.8" font-family="Times,serif" font-size="14.00">BlogPostCommentComponent</text>
</g>
<!-- BlogPostCommentComponent&#45;&gt;BlogModule -->
<g id="edge2" class="edge">
<title>BlogPostCommentComponent&#45;&gt;BlogModule</title>
<path fill="none" stroke="black" d="M334.78,-122.11C334.78,-122.11 334.78,-140.99 334.78,-140.99"/>
<polygon fill="black" stroke="black" points="331.28,-140.99 334.78,-150.99 338.28,-140.99 331.28,-140.99"/>
</g>
<!-- BlogPostComponent -->
<g id="node3" class="node">
<title>BlogPostComponent</title>
<polygon fill="#ffffb3" stroke="black" points="156.18,-122 23.82,-122 23.82,-86 156.18,-86 156.18,-122"/>
<text text-anchor="middle" x="90" y="-99.8" font-family="Times,serif" font-size="14.00">BlogPostComponent</text>
</g>
<!-- BlogPostComponent&#45;&gt;BlogModule -->
<g id="edge3" class="edge">
<title>BlogPostComponent&#45;&gt;BlogModule</title>
<path fill="none" stroke="black" d="M90,-122.11C90,-141.34 90,-169 90,-169 90,-169 297.61,-169 297.61,-169"/>
<polygon fill="black" stroke="black" points="297.61,-172.5 307.61,-169 297.61,-165.5 297.61,-172.5"/>
</g>
<!-- BlogComponent  -->
<g id="node6" class="node">
<title>BlogComponent </title>
<polygon fill="#fb8072" stroke="black" points="407.06,-252 294.94,-252 294.94,-216 407.06,-216 407.06,-252"/>
<text text-anchor="middle" x="351" y="-229.8" font-family="Times,serif" font-size="14.00">BlogComponent </text>
</g>
<!-- BlogModule&#45;&gt;BlogComponent  -->
<g id="edge5" class="edge">
<title>BlogModule&#45;&gt;BlogComponent </title>
<path fill="none" stroke="black" stroke-dasharray="5,2" d="M351,-187.11C351,-187.11 351,-205.99 351,-205.99"/>
<polygon fill="black" stroke="black" points="347.5,-205.99 351,-215.99 354.5,-205.99 347.5,-205.99"/>
</g>
<!-- SharedModule -->
<g id="node5" class="node">
<title>SharedModule</title>
<polygon fill="#8dd3c7" stroke="black" points="610.42,-122 607.42,-126 586.42,-126 583.42,-122 511.58,-122 511.58,-86 610.42,-86 610.42,-122"/>
<text text-anchor="middle" x="561" y="-99.8" font-family="Times,serif" font-size="14.00">SharedModule</text>
</g>
<!-- SharedModule&#45;&gt;BlogModule -->
<g id="edge4" class="edge">
<title>SharedModule&#45;&gt;BlogModule</title>
<path fill="none" stroke="black" d="M561,-122.11C561,-141.34 561,-169 561,-169 561,-169 404.51,-169 404.51,-169"/>
<polygon fill="black" stroke="black" points="404.51,-165.5 394.51,-169 404.51,-172.5 404.51,-165.5"/>
</g>
</g>
</svg>
